<svg xmlns="http://www.w3.org/2000/svg" viewBox="0 0 792.49 137.55"><defs><style>.cls-1{fill:#006ada;}.cls-2{fill:#231f20;}</style></defs><title>Asset 6</title><g id="Layer_2" data-name="Layer 2"><g id="Layer_1-2" data-name="Layer 1"><path class="cls-1" d="M213.21,45.33,173.14,85.39l-31,31.06c-4,4-8,0-8,0l-22-22s-4-4,0-8l22-22c4-4,8,0,8,0L149,71.3a7.09,7.09,0,1,0,10-10l-16-16h0a7,7,0,0,0-2.34-1.55c-.21-.09-.43-.16-.65-.23a7.31,7.31,0,0,0-2-.29,7.07,7.07,0,0,0-5,2.07h0L93,85.39a7.1,7.1,0,0,0,0,10h0l40.06,40.07h0a7.1,7.1,0,0,0,10,0l40.07-40.07,31.05-31c4-4,8,0,8,0l22,22s4,4,0,8l-22,22c-4,4-8,0-8,0l-7.08-7.08a7.08,7.08,0,0,0-10,10l16.09,16.1h0a7.1,7.1,0,0,0,10,0L263.3,95.41a7.12,7.12,0,0,0,0-10h0L223.23,45.33h0A7.1,7.1,0,0,0,213.21,45.33Z"/><g id="_Group_" data-name="&lt;Group&gt;"><g id="_Group_2" data-name="&lt;Group&gt;"><path id="_Compound_Path_" data-name="&lt;Compound Path&gt;" class="cls-2" d="M57.44,0h17V127h-17v-7.67q-10,9.78-22.63,9.77a32.19,32.19,0,0,1-25-11Q0,106.91,0,90.14q0-16.4,9.85-27.37A31.44,31.44,0,0,1,34.43,51.72q12.85,0,23,10.53ZM17.29,90.14q0,10.53,5.64,17.14A18.47,18.47,0,0,0,37.52,114q9.39,0,15.18-6.46,5.79-6.69,5.79-17t-5.79-17a19.15,19.15,0,0,0-15-6.55A18.7,18.7,0,0,0,23.08,73.6,24.4,24.4,0,0,0,17.29,90.14Z"/><path id="_Compound_Path_2" data-name="&lt;Compound Path&gt;" class="cls-2" d="M339.47,0h17V127h-17v-7.67q-10,9.78-22.63,9.77a32.2,32.2,0,0,1-25-11q-9.86-11.2-9.85-28,0-16.4,9.85-27.37a31.44,31.44,0,0,1,24.58-11.05q12.85,0,23,10.53ZM299.32,90.14q0,10.53,5.64,17.14A18.47,18.47,0,0,0,319.55,114q9.39,0,15.18-6.46,5.79-6.69,5.79-17t-5.79-17a19.14,19.14,0,0,0-15-6.55,18.71,18.71,0,0,0-14.59,6.62A24.4,24.4,0,0,0,299.32,90.14Z"/><path id="_Compound_Path_3" data-name="&lt;Compound Path&gt;" class="cls-2" d="M396.26,0V127H379.35V0Z"/><path id="_Compound_Path_4" data-name="&lt;Compound Path&gt;" class="cls-2" d="M485.91,94.35H433.44q.68,9,5.86,14.36A17.88,17.88,0,0,0,452.61,114a17.35,17.35,0,0,0,10.45-3q4.06-3,9.25-11.13l14.28,8a57.3,57.3,0,0,1-7,9.66,37.46,37.46,0,0,1-7.89,6.61,31.62,31.62,0,0,1-9.1,3.8,44.39,44.39,0,0,1-10.6,1.2q-16.39,0-26.31-10.52t-9.93-28.12q0-17.37,9.63-28.12,9.69-10.59,25.71-10.6T476.67,62Q486,72.25,486,90.37ZM468.55,80.52Q465,67,451.48,67a17.75,17.75,0,0,0-5.79.94,16.65,16.65,0,0,0-4.92,2.71,17.23,17.23,0,0,0-3.8,4.25,19.67,19.67,0,0,0-2.4,5.64Z"/><path id="_Compound_Path_5" data-name="&lt;Compound Path&gt;" class="cls-2" d="M522.86,0V62.25q10.15-10.53,23-10.53a31.69,31.69,0,0,1,24.66,11.05q9.84,11,9.85,27.37,0,16.92-9.93,28a32,32,0,0,1-24.88,11q-12.71,0-22.71-9.77V127H506V0Zm40.23,90.89q0-10.51-5.72-17.14A18.32,18.32,0,0,0,542.86,67a19.48,19.48,0,0,0-15.19,6.55q-5.79,6.47-5.78,16.84,0,10.66,5.71,17.06t15,6.54a18.64,18.64,0,0,0,14.58-6.54Q563.09,100.82,563.09,90.89Z"/><path id="_Compound_Path_6" data-name="&lt;Compound Path&gt;" class="cls-2" d="M616.72,0V127H599.81V0Z"/><path id="_Compound_Path_7" data-name="&lt;Compound Path&gt;" class="cls-2" d="M656.6,53.75v42Q656.6,114,671,114t14.36-18.19v-42h16.92v42.4a47.27,47.27,0,0,1-2.18,15.19,25.66,25.66,0,0,1-7.29,10.3q-8.58,7.44-21.81,7.44t-21.72-7.44a26,26,0,0,1-7.45-10.3q-2.1-5.11-2.1-15.19V53.75Z"/><path id="_Compound_Path_8" data-name="&lt;Compound Path&gt;" class="cls-2" d="M791.81,94.35H739.34q.67,9,5.86,14.36A17.88,17.88,0,0,0,758.51,114,17.35,17.35,0,0,0,769,111q4.06-3,9.25-11.13l14.28,8a57.3,57.3,0,0,1-7,9.66,37.26,37.26,0,0,1-7.9,6.61,31.56,31.56,0,0,1-9.09,3.8,44.39,44.39,0,0,1-10.6,1.2q-16.39,0-26.32-10.52t-9.92-28.12q0-17.37,9.62-28.12Q741,51.73,757,51.72q16.17,0,25.57,10.3t9.32,28.35ZM774.45,80.52Q770.91,67,757.38,67a17.75,17.75,0,0,0-5.79.94,16.65,16.65,0,0,0-4.92,2.71,17,17,0,0,0-3.8,4.25,19.67,19.67,0,0,0-2.4,5.64Z"/></g></g></g></g></svg>